<?xml version="1.0" encoding="UTF-8"?>
<svg width="43px" height="43px" viewBox="0 0 43 43" version="1.1" xmlns="http://www.w3.org/2000/svg" xmlns:xlink="http://www.w3.org/1999/xlink">
    <!-- Generator: Sketch 46.2 (44496) - http://www.bohemiancoding.com/sketch -->
    <title>Fill 182</title>
    <desc>Created with Sketch.</desc>
    <defs></defs>
    <g id="Page-1" stroke="none" stroke-width="1" fill="none" fill-rule="evenodd">
        <g id="outline" transform="translate(-119.000000, -178.000000)" fill="#000000">
            <path d="M129.624,188.785 C129.331,189.078 129.331,189.553 129.624,189.846 L149.762,209.981 C149.909,210.128 150.101,210.201 150.292,210.201 C150.484,210.201 150.676,210.128 150.823,209.981 C151.116,209.688 151.116,209.214 150.823,208.921 L130.685,188.785 C130.392,188.492 129.917,188.492 129.624,188.785 L129.624,188.785 Z M136.241,198.723 C134.511,200.452 131.696,200.453 129.965,198.723 L121.833,190.589 C120.999,189.754 120.54,188.64 120.54,187.451 C120.54,186.263 120.999,185.149 121.834,184.315 L125.151,180.995 C126.881,179.266 129.696,179.266 131.426,180.994 L139.559,189.131 C141.289,190.858 141.289,193.673 139.559,195.405 L139.493,195.472 L140.023,196.002 L140.62,196.465 C142.934,194.147 142.934,190.382 140.62,188.069 L132.487,179.934 C130.173,177.62 126.407,177.62 124.09,179.934 L120.773,183.255 C119.655,184.371 119.04,185.861 119.04,187.451 C119.04,189.041 119.655,190.531 120.773,191.649 L128.904,199.784 C130.054,200.933 131.56,201.511 133.078,201.511 C134.619,201.511 136.171,200.915 137.372,199.714 C137.665,199.421 137.629,198.98 137.337,198.687 C137.043,198.396 136.535,198.431 136.241,198.723 L136.241,198.723 Z M159.77,207.024 L151.635,198.888 C149.321,196.576 145.555,196.576 143.24,198.888 L143.075,199.053 C142.782,199.346 142.782,199.82 143.075,200.113 C143.368,200.406 143.842,200.406 144.135,200.113 L144.3,199.949 C146.03,198.221 148.846,198.221 150.575,199.948 L158.709,208.085 C159.543,208.918 160.003,210.032 160.003,211.221 C160.003,212.41 159.543,213.524 158.709,214.358 L155.39,217.676 C154.556,218.511 153.442,218.97 152.252,218.97 C151.063,218.97 149.949,218.511 149.115,217.676 L140.981,209.543 C139.266,207.828 139.257,205.025 140.961,203.295 C141.252,203 141.248,202.525 140.954,202.234 C140.658,201.943 140.183,201.947 139.893,202.242 C137.613,204.558 137.625,208.309 139.92,210.604 L148.054,218.736 C149.171,219.854 150.663,220.47 152.252,220.47 C153.843,220.47 155.334,219.854 156.451,218.736 L159.77,215.419 C160.888,214.302 161.503,212.81 161.503,211.221 C161.503,209.631 160.888,208.141 159.77,207.024 L159.77,207.024 Z" id="Fill-182"></path>
        </g>
    </g>
</svg>