<?xml version="1.0" encoding="UTF-8"?>
<svg width="23px" height="45px" viewBox="0 0 23 45" version="1.1" xmlns="http://www.w3.org/2000/svg" xmlns:xlink="http://www.w3.org/1999/xlink">
    <!-- Generator: Sketch 46.2 (44496) - http://www.bohemiancoding.com/sketch -->
    <title>Fill 65</title>
    <desc>Created with Sketch.</desc>
    <defs></defs>
    <g id="Page-1" stroke="none" stroke-width="1" fill="none" fill-rule="evenodd">
        <g id="outline" transform="translate(-129.000000, -849.000000)" fill="#5B5C59">
            <path d="M149.331,869.928 C147.206,867.804 146.516,861.127 146.559,855.744 L148.083,855.741 C149.701,855.741 151.02,854.424 151.023,852.804 C151.023,851.181 149.706,849.86 148.086,849.86 L132.455,849.862 C131.666,849.862 130.927,850.168 130.372,850.725 C129.818,851.279 129.514,852.019 129.515,852.804 C129.515,854.424 130.831,855.741 132.456,855.741 L133.908,855.741 C133.904,861.722 133.077,868.236 131.185,869.882 C127.533,873.056 130.225,879.308 130.341,879.572 C130.46,879.845 130.73,880.02 131.027,880.02 L139.236,880.023 L139.236,893.272 C139.236,893.686 139.572,894.022 139.986,894.022 C140.4,894.022 140.736,893.686 140.736,893.272 L140.736,880.023 L149.449,880.026 C149.73,880.026 149.987,879.869 150.116,879.62 C150.24,879.38 153.101,873.695 149.331,869.928 L149.331,869.928 Z M148.964,878.526 L131.539,878.52 C131.044,877.162 129.819,873.057 132.169,871.015 C135.302,868.29 135.437,858.055 135.404,854.983 C135.4,854.572 135.065,854.241 134.654,854.241 L132.448,854.241 C131.658,854.241 131.015,853.597 131.015,852.802 C131.014,852.417 131.163,852.056 131.434,851.784 C131.705,851.512 132.068,851.362 132.458,851.362 L148.086,851.36 C148.879,851.36 149.523,852.008 149.523,852.802 C149.522,853.596 148.876,854.241 148.082,854.241 L145.818,854.245 C145.411,854.246 145.079,854.572 145.07,854.979 C145.008,857.923 145.058,867.776 148.27,870.988 C150.757,873.474 149.481,877.282 148.964,878.526 L148.964,878.526 Z" id="Fill-65"></path>
        </g>
    </g>
</svg>