<?xml version="1.0" encoding="UTF-8"?>
<svg width="33px" height="49px" viewBox="0 0 33 49" version="1.1" xmlns="http://www.w3.org/2000/svg" xmlns:xlink="http://www.w3.org/1999/xlink">
    <!-- Generator: Sketch 46.2 (44496) - http://www.bohemiancoding.com/sketch -->
    <title>Fill 63</title>
    <desc>Created with Sketch.</desc>
    <defs></defs>
    <g id="Page-1" stroke="none" stroke-width="1" fill="none" fill-rule="evenodd">
        <g id="outline" transform="translate(-275.000000, -847.000000)" fill="#5B5C59">
            <path d="M291.375,847.845 C282.492,847.845 275.265,855.615 275.265,865.167 C275.265,880.318 290.213,895.197 290.85,895.823 C290.996,895.966 291.185,896.038 291.375,896.038 C291.563,896.038 291.751,895.968 291.897,895.827 C292.534,895.212 307.487,880.571 307.487,865.167 C307.487,855.615 300.259,847.845 291.375,847.845 L291.375,847.845 Z M291.379,894.217 C288.713,891.415 276.765,878.132 276.765,865.167 C276.765,856.442 283.319,849.345 291.375,849.345 C299.432,849.345 305.987,856.442 305.987,865.167 C305.987,878.344 294.053,891.447 291.379,894.217 L291.379,894.217 Z M291.375,853.604 C285.486,853.604 280.695,858.396 280.695,864.286 C280.695,870.176 285.486,874.968 291.375,874.968 C297.265,874.968 302.056,870.176 302.056,864.286 C302.056,858.396 297.265,853.604 291.375,853.604 L291.375,853.604 Z M291.375,873.468 C286.313,873.468 282.195,869.349 282.195,864.286 C282.195,859.224 286.313,855.104 291.375,855.104 C296.437,855.104 300.556,859.224 300.556,864.286 C300.556,869.349 296.437,873.468 291.375,873.468 L291.375,873.468 Z" id="Fill-63"></path>
        </g>
    </g>
</svg>